<?xml version="1.0" standalone="no"?><!DOCTYPE svg PUBLIC "-//W3C//DTD SVG 1.1//EN" "http://www.w3.org/Graphics/SVG/1.1/DTD/svg11.dtd"><svg t="1681635326981" class="icon" viewBox="0 0 1024 1024" version="1.1" xmlns="http://www.w3.org/2000/svg" p-id="2831" xmlns:xlink="http://www.w3.org/1999/xlink" width="200" height="200"><path d="M463.69 847.008a423.504 423.504 0 1 1 423.505-423.504A423.823 423.823 0 0 1 463.69 847.008z m0-783.227a359.723 359.723 0 1 0 359.724 359.723A360.042 360.042 0 0 0 463.691 63.781z" fill="#8a8a8a" p-id="2832"></path><path d="M712.449 737.299l5.224-4.191q24.874-19.957 44.83 4.918l184.799 230.336q19.956 24.874-4.918 44.83l-5.224 4.191q-24.874 19.957-44.83-4.917L707.53 782.13q-19.956-24.875 4.918-44.831z" fill="#8a8a8a" p-id="2833"></path></svg>